***************************** TPB IS BENEDICTION TO ME ****************************
*                                                                                 *
*										  *
*	        *                       *                       *	          *
*              ***                     ***                     ***                *
*	      *****                   *****                   *****		  *
*            *******                 *******                 *******		  *
*           *********		    *********               *********             *
*          ***********	           ***********             *********** 		  *
*         *************           *************           *************           *
*        ***************         ***************         ***************	  *
*       *****************       *****************       *****************         *
*      *******************     *******************     *******************        *
*     *** TPB IS D BEST ***   *** TPB IS D BEST ***   *** TPB IS D BEST *** 	  *
*      *******************     *******************     *******************	  *
*       *****************       *****************       *****************         *
*        ***************         ***************         ***************          *
*         *************           *************           *************	 	  *
*          ***********             ***********             ***********            *
*           *********               *********               *********             *
*            *******                 *******                 *******              *
*             *****                   *****		      *****               *
*	       ***                     ***                     ***                *
*	        *                       *                       *                 *
*										  *
*										  *
***************************** TPB IS BENEDICTION TO ME ****************************


Screen Link :---

 
http://www.shotpix.com/images/00120743490711065431.jpg
 
http://www.shotpix.com/images/52815663462999149240.jpg
 
http://www.shotpix.com/images/42990289310151117569.jpg



Cast & crew details :---


    Cast            :  Prosenjit, Paoli Dam ,Tota Roy Chowdhury ,Bratya Basu.
    Genre           :  Drama
    Release Date    :  Nov 5, 2010
    Director        :  Bratyo Basu
    Music Director  :  Tapan Sinha
    Censor Rate     :  U/A


General Info :---  (Disc 1) :---


Format                           : Matroska
File size                        : 208 MiB
Duration                         : 1h 6mn
Overall bit rate                 : 436 Kbps
Movie name                       : P
Encoded date                     : UTC 2011-06-23 14:36:11

Video
ID                               : 1
Format                           : AVC
Format/Info                      : Advanced Video Codec
Format profile                   : High@L4.0
Format settings, CABAC           : Yes
Format settings, ReFrames        : 3 frames
Codec ID                         : V_MPEG4/ISO/AVC
Duration                         : 1h 6mn
Bit rate mode                    : Variable
Bit rate                         : 307 Kbps
Maximum bit rate                 : 25.0 Mbps
Width                            : 352 pixels
Height                           : 288 pixels
Display aspect ratio             : 1.222
Frame rate                       : 23.976 fps
Standard                         : PAL
Color space                      : YUV
Chroma subsampling               : 4:2:0
Bit depth                        : 8 bits
Scan type                        : Progressive
Bits/(Pixel*Frame)               : 0.126

Audio
ID                               : 2
Format                           : MPEG Audio
Format version                   : Version 1
Format profile                   : Layer 2
Codec ID                         : A_MPEG/L2
Codec ID/Hint                    : MP2
Duration                         : 1h 6mn
Bit rate mode                    : Constant
Bit rate                         : 128 Kbps
Channel(s)                       : 2 channels
Sampling rate                    : 44.1 KHz
Compression mode                 : Lossy
Stream size                      : 61.1 MiB (29%)


General Info :---  (Disc 2) :---


Format                           : Matroska
File size                        : 205 MiB
Duration                         : 1h 4mn
Overall bit rate                 : 443 Kbps
Movie name                       : P

Video
ID                               : 1
Format                           : AVC
Format/Info                      : Advanced Video Codec
Format profile                   : High@L4.0
Format settings, CABAC           : Yes
Format settings, ReFrames        : 3 frames
Codec ID                         : V_MPEG4/ISO/AVC
Duration                         : 1h 4mn
Bit rate mode                    : Variable
Bit rate                         : 314 Kbps
Maximum bit rate                 : 25.0 Mbps
Width                            : 352 pixels
Height                           : 288 pixels
Display aspect ratio             : 1.222
Frame rate                       : 23.976 fps
Standard                         : PAL
Color space                      : YUV
Chroma subsampling               : 4:2:0
Bit depth                        : 8 bits
Scan type                        : Progressive
Bits/(Pixel*Frame)               : 0.129

Audio
ID                               : 2
Format                           : MPEG Audio
Format version                   : Version 1
Format profile                   : Layer 2
Codec ID                         : A_MPEG/L2
Codec ID/Hint                    : MP2
Duration                         : 1h 4mn
Bit rate mode                    : Constant
Bit rate                         : 128 Kbps
Channel(s)                       : 2 channels
Sampling rate                    : 44.1 KHz
Compression mode                 : Lossy
Stream size                      : 59.3 MiB (29%)


TARA SYNOPSIS : ---

Neither we, nor you,      they….TARA.
My Tara are not the stars up in the sky, my Tara are not the mainstream in the society but they who only belong to the fringes in the social context. THEY ARE MY STARS. TARA is essentially a love story. A story of a motherless girl,  Madhuja, living with her retired Professor father Manoj in the suburbs of Kolkata. Within their normal day to day life, disaster struck. Manoj is arrested by the police giving him a Maoist stigma and subjected to inhuman torture. The administration, political  parties, all play their part turning two hapless human beings into outcasts.

At this juncture help arrives to Madhuja through suspended police officer, Jahangir Khan. Jahangir realizes that he can prevent the onslaught on Madhuja and Manoj but can not retaliate against the perpetrators.



***************************** TPB IS BENEDICTION TO ME ****************************
*                                                                                 *
*										  *
*	        *                       *                       *	          *
*              ***                     ***                     ***                *
*	      *****                   *****                   *****		  *
*            *******                 *******                 *******		  *
*           *********		    *********               *********             *
*          ***********	           ***********             *********** 		  *
*         *************           *************           *************           *
*        ***************         ***************         ***************	  *
*       *****************       *****************       *****************         *
*      *******************     *******************     *******************        *
*     *** TPB IS D BEST ***   *** TPB IS D BEST ***   *** TPB IS D BEST *** 	  *
*      *******************     *******************     *******************	  *
*       *****************       *****************       *****************         *
*        ***************         ***************         ***************          *
*         *************           *************           *************	 	  *
*          ***********             ***********             ***********            *
*           *********               *********               *********             *
*            *******                 *******                 *******              *
*             *****                   *****		      *****               *
*	       ***                     ***                     ***                *
*	        *                       *                       *                 *
*										  *
*										  *
***************************** TPB IS BENEDICTION TO ME ****************************




